<svg width="9" height="17" viewBox="0 0 9 17" fill="none" xmlns="http://www.w3.org/2000/svg">
<path d="M1.49331 8.32671e-05C1.68542 -0.00053279 1.87524 0.0394987 2.04881 0.11724C2.22239 0.194982 2.37531 0.308458 2.49634 0.449327L8.70746 7.73435C8.8966 7.95161 9 8.22412 9 8.50535C9 8.78658 8.8966 9.0591 8.70746 9.27635L2.27773 16.5614C2.05946 16.8093 1.7458 16.9653 1.40576 16.9949C1.06572 17.0245 0.72716 16.9253 0.464548 16.7192C0.201937 16.5131 0.03679 16.217 0.0054389 15.8959C-0.0259122 15.5749 0.0790998 15.2552 0.297375 15.0072L6.04556 8.49928L0.490269 1.99132C0.33302 1.8131 0.233131 1.59608 0.202424 1.36593C0.171715 1.13579 0.211473 0.902154 0.316992 0.692676C0.422512 0.483197 0.589376 0.306642 0.797842 0.183902C1.00631 0.0611603 1.24765 -0.0026271 1.49331 8.32671e-05Z" fill="black"/>
</svg>
