<svg width="120" height="120" viewBox="0 0 120 120" fill="none" xmlns="http://www.w3.org/2000/svg">
<circle cx="60" cy="60" r="60" fill="#FFD800"/>
<path d="M85.1035 66.1381H77.5173V58.552H73.7242V75.6208H43.3793V45.2762H60.4483V41.4831H52.8621V33.897H49.069V41.4831H43.3793C42.3736 41.4841 41.4094 41.8841 40.6983 42.5952C39.9872 43.3063 39.5872 44.2705 39.5862 45.2762V50.9658H32V54.7589H39.5862V66.1381H32V69.9312H39.5862V75.6208C39.5872 76.6265 39.9872 77.5907 40.6983 78.3018C41.4094 79.0129 42.3736 79.4129 43.3793 79.4139H49.069V87H52.8621V79.4139H64.2414V87H68.0345V79.4139H73.7242C74.7297 79.4123 75.6936 79.0122 76.4047 78.3012C77.1157 77.5902 77.5158 76.6263 77.5173 75.6208V69.9312H85.1035V66.1381Z" fill="#1A1A1A"/>
<path d="M68.0342 69.9309H49.0687V50.9655H68.0342V69.9309ZM52.8618 66.1378H64.2411V54.7586H52.8618V66.1378Z" fill="#1A1A1A"/>
<path d="M87 54.7584H83.2069C83.2009 49.7303 81.2008 44.9099 77.6454 41.3545C74.09 37.7992 69.2695 35.7991 64.2414 35.7931V32C70.2753 32.0065 76.0603 34.4064 80.327 38.673C84.5936 42.9396 86.9935 48.7245 87 54.7584Z" fill="#1A1A1A"/>
<path d="M77.5173 54.7584H73.7242C73.7212 52.2443 72.7212 49.8341 70.9435 48.0564C69.1658 46.2787 66.7555 45.2787 64.2415 45.2757V41.4826C67.7612 41.4866 71.1356 42.8866 73.6245 45.3754C76.1133 47.8642 77.5133 51.2386 77.5173 54.7584Z" fill="#1A1A1A"/>
</svg>
