<svg width="120" height="120" viewBox="0 0 120 120" fill="none" xmlns="http://www.w3.org/2000/svg">
<circle cx="60" cy="60" r="60" fill="#FFD800"/>
<path d="M47.4481 73.2556L50.973 68.8833L39.6258 59.8727L50.973 50.8622L47.4481 46.4899L33.3488 57.6866C33.0184 57.9488 32.7517 58.2815 32.5684 58.6599C32.3852 59.0383 32.29 59.4528 32.29 59.8727C32.29 60.2926 32.3852 60.7071 32.5684 61.0856C32.7517 61.464 33.0184 61.7966 33.3488 62.0589L47.4481 73.2556ZM73.5319 46.4899L70.0071 50.8622L81.3542 59.8727L70.0071 68.8833L73.5319 73.2556L87.6312 62.0589C87.9616 61.7966 88.2283 61.464 88.4116 61.0856C88.5948 60.7071 88.69 60.2926 88.69 59.8727C88.69 59.4528 88.5948 59.0383 88.4116 58.6599C88.2283 58.2815 87.9616 57.9488 87.6312 57.6866L73.5319 46.4899ZM68.8819 35.2848L57.6025 85.6699L52.0953 84.4551L63.3747 34.0699L68.8819 35.2848Z" fill="#1A1A1A"/>
</svg>
