<svg width="26" height="26" viewBox="0 0 26 26" fill="none" xmlns="http://www.w3.org/2000/svg">
<path d="M13.3541 8.47463C11.0588 8.47463 9.1857 10.3478 9.1857 12.6431C9.1857 14.9384 11.0588 16.8115 13.3541 16.8115C15.6493 16.8115 17.5224 14.9384 17.5224 12.6431C17.5224 10.3478 15.6493 8.47463 13.3541 8.47463ZM25.856 12.6431C25.856 10.9169 25.8717 9.20637 25.7747 7.48333C25.6778 5.48198 25.2212 3.70578 23.7578 2.24229C22.2912 0.775673 20.5181 0.322242 18.5168 0.225301C16.7907 0.128361 15.0802 0.143997 13.3572 0.143997C11.6311 0.143997 9.92056 0.128361 8.19755 0.225301C6.19623 0.322242 4.42007 0.7788 2.95661 2.24229C1.49002 3.70891 1.03659 5.48198 0.939655 7.48333C0.842717 9.2095 0.858352 10.92 0.858352 12.6431C0.858352 14.3661 0.842717 16.0798 0.939655 17.8028C1.03659 19.8042 1.49314 21.5804 2.95661 23.0438C4.42319 24.5105 6.19623 24.9639 8.19755 25.0608C9.92368 25.1578 11.6342 25.1421 13.3572 25.1421C15.0833 25.1421 16.7938 25.1578 18.5168 25.0608C20.5181 24.9639 22.2943 24.5073 23.7578 23.0438C25.2244 21.5772 25.6778 19.8042 25.7747 17.8028C25.8748 16.0798 25.856 14.3692 25.856 12.6431ZM13.3541 19.0568C9.80485 19.0568 6.94047 16.1923 6.94047 12.6431C6.94047 9.09379 9.80485 6.22936 13.3541 6.22936C16.9033 6.22936 19.7677 9.09379 19.7677 12.6431C19.7677 16.1923 16.9033 19.0568 13.3541 19.0568ZM20.0303 7.46457C19.2017 7.46457 18.5325 6.79537 18.5325 5.96668C18.5325 5.138 19.2017 4.46879 20.0303 4.46879C20.859 4.46879 21.5282 5.138 21.5282 5.96668C21.5284 6.16346 21.4899 6.35835 21.4147 6.54019C21.3395 6.72203 21.2292 6.88726 21.09 7.0264C20.9509 7.16554 20.7857 7.27586 20.6038 7.35105C20.422 7.42624 20.2271 7.46481 20.0303 7.46457Z" fill="black"/>
</svg>
