<svg width="100" height="100" viewBox="0 0 100 100" fill="none" xmlns="http://www.w3.org/2000/svg">
<path fill-rule="evenodd" clip-rule="evenodd" d="M55 5C55 3.67392 54.4732 2.40215 53.5355 1.46447C52.5979 0.526784 51.3261 0 50 0C48.6739 0 47.4021 0.526784 46.4645 1.46447C45.5268 2.40215 45 3.67392 45 5V10C45 11.3261 45.5268 12.5979 46.4645 13.5355C47.4021 14.4732 48.6739 15 50 15C51.3261 15 52.5979 14.4732 53.5355 13.5355C54.4732 12.5979 55 11.3261 55 10V5ZM21.035 13.965C20.092 13.0542 18.829 12.5502 17.518 12.5616C16.207 12.573 14.9529 13.0989 14.0259 14.0259C13.0989 14.9529 12.573 16.207 12.5616 17.518C12.5502 18.829 13.0542 20.092 13.965 21.035L18.965 26.035C19.908 26.9458 21.171 27.4498 22.482 27.4384C23.793 27.427 25.0471 26.9011 25.9741 25.9741C26.9011 25.0471 27.427 23.793 27.4384 22.482C27.4498 21.171 26.9458 19.908 26.035 18.965L21.035 13.965ZM86.035 21.035C86.9458 20.092 87.4498 18.829 87.4384 17.518C87.427 16.207 86.9011 14.9529 85.9741 14.0259C85.0471 13.0989 83.793 12.573 82.482 12.5616C81.171 12.5502 79.908 13.0542 78.965 13.965L73.965 18.965C73.0542 19.908 72.5502 21.171 72.5616 22.482C72.573 23.793 73.0989 25.0471 74.0259 25.9741C74.9529 26.9011 76.207 27.427 77.518 27.4384C78.829 27.4498 80.092 26.9458 81.035 26.035L86.035 21.035ZM50 20C43.5552 19.9996 37.2815 22.0747 32.108 25.918C26.9345 29.7613 23.1362 35.1684 21.2756 41.3388C19.4149 47.5093 19.5908 54.1148 21.7772 60.1775C23.9636 66.2401 28.0443 71.4375 33.415 75H66.585C71.9557 71.4375 76.0364 66.2401 78.2228 60.1775C80.4092 54.1148 80.5851 47.5093 78.7244 41.3388C76.8638 35.1684 73.0655 29.7613 67.892 25.918C62.7185 22.0747 56.4448 19.9996 50 20V20ZM65 80H35V85C35 88.9782 36.5804 92.7936 39.3934 95.6066C42.2064 98.4196 46.0218 100 50 100C53.9782 100 57.7936 98.4196 60.6066 95.6066C63.4196 92.7936 65 88.9782 65 85V80ZM5 45C3.67392 45 2.40215 45.5268 1.46447 46.4645C0.526784 47.4021 0 48.6739 0 50C0 51.3261 0.526784 52.5979 1.46447 53.5355C2.40215 54.4732 3.67392 55 5 55H10C11.3261 55 12.5979 54.4732 13.5355 53.5355C14.4732 52.5979 15 51.3261 15 50C15 48.6739 14.4732 47.4021 13.5355 46.4645C12.5979 45.5268 11.3261 45 10 45H5ZM90 45C88.6739 45 87.4021 45.5268 86.4645 46.4645C85.5268 47.4021 85 48.6739 85 50C85 51.3261 85.5268 52.5979 86.4645 53.5355C87.4021 54.4732 88.6739 55 90 55H95C96.3261 55 97.5979 54.4732 98.5355 53.5355C99.4732 52.5979 100 51.3261 100 50C100 48.6739 99.4732 47.4021 98.5355 46.4645C97.5979 45.5268 96.3261 45 95 45H90Z" fill="#FFD800"/>
</svg>
