<svg width="90" height="90" viewBox="0 0 90 90" fill="none" xmlns="http://www.w3.org/2000/svg">
<path d="M73.1803 89.999C70.6598 90.0267 68.1666 89.4999 65.896 88.4599C63.6254 87.4199 61.6388 85.8949 60.0917 84.0042C58.5447 82.1134 57.4791 79.9083 56.9784 77.5612C56.4776 75.2141 56.5553 72.7888 57.2053 70.475L27.6448 54.4233C25.1511 56.5938 22.0156 57.9838 18.6629 58.4051C15.3101 58.8265 11.9021 58.2588 8.90017 56.779C5.89826 55.2992 3.44752 52.9788 1.8798 50.1318C0.312073 47.2849 -0.296908 44.0491 0.135314 40.8624C0.567537 37.6758 2.02008 34.6923 4.29627 32.3159C6.57246 29.9396 9.56233 28.2852 12.861 27.5767C16.1598 26.8682 19.608 27.1399 22.7388 28.355C25.8696 29.5701 28.5317 31.6698 30.3647 34.37L57.2006 19.7943C56.8535 18.5479 56.6695 17.2656 56.6529 15.9765C56.62 12.3347 57.909 8.79345 60.3028 5.94892C62.6966 3.10439 66.049 1.13035 69.7955 0.359206C73.542 -0.411941 77.4538 0.0669009 80.8722 1.7151C84.2906 3.36331 87.0067 6.0802 88.5634 9.40831C90.12 12.7364 90.4221 16.4725 89.4186 19.9874C88.4152 23.5023 86.1675 26.5814 83.0542 28.7061C79.9408 30.8309 76.1519 31.8717 72.3254 31.6531C68.4988 31.4345 64.8685 29.97 62.0455 27.5061L33.0044 43.2751C32.9713 44.4415 32.8013 45.5945 32.4897 46.7205L62.0503 62.7677C64.0288 61.0427 66.4204 59.8024 69.0178 59.1545C71.6151 58.5065 74.3396 58.4705 76.9549 59.0495C79.5702 59.6285 81.9973 60.8051 84.0255 62.4771C86.0538 64.1491 87.622 66.266 88.594 68.6442C89.566 71.0224 89.9126 73.59 89.6035 76.1243C89.2944 78.6585 88.3391 81.0829 86.8204 83.1869C85.3017 85.2909 83.2656 87.0111 80.8886 88.1982C78.5117 89.3853 75.8657 90.0034 73.1803 89.999ZM73.1803 67.5679C71.3018 67.5679 69.5001 68.2769 68.1718 69.5389C66.8434 70.8009 66.0971 72.5125 66.0971 74.2972C66.0971 76.082 66.8434 77.7936 68.1718 79.0556C69.5001 80.3176 71.3018 81.0265 73.1803 81.0265C75.0589 81.0265 76.8606 80.3176 78.1889 79.0556C79.5173 77.7936 80.2635 76.082 80.2635 74.2972C80.2635 72.5125 79.5173 70.8009 78.1889 69.5389C76.8606 68.2769 75.0589 67.5679 73.1803 67.5679ZM16.5147 36.1644C14.6361 36.1644 12.8345 36.8734 11.5061 38.1354C10.1777 39.3974 9.43147 41.109 9.43147 42.8938C9.43147 44.6785 10.1777 46.3901 11.5061 47.6521C12.8345 48.9141 14.6361 49.6231 16.5147 49.6231C18.3933 49.6231 20.1949 48.9141 21.5233 47.6521C22.8516 46.3901 23.5979 44.6785 23.5979 42.8938C23.5979 41.109 22.8516 39.3974 21.5233 38.1354C20.1949 36.8734 18.3933 36.1644 16.5147 36.1644ZM73.1803 9.24718C72.2502 9.24718 71.3291 9.42124 70.4697 9.75942C69.6103 10.0976 68.8295 10.5933 68.1718 11.2182C67.514 11.843 66.9923 12.5849 66.6363 13.4013C66.2803 14.2177 66.0971 15.0928 66.0971 15.9765C66.0971 16.8602 66.2803 17.7353 66.6363 18.5517C66.9923 19.3681 67.514 20.11 68.1718 20.7348C68.8295 21.3597 69.6103 21.8554 70.4697 22.1936C71.3291 22.5318 72.2502 22.7058 73.1803 22.7058C75.0589 22.7058 76.8606 21.9968 78.1889 20.7348C79.5173 19.4729 80.2635 17.7612 80.2635 15.9765C80.2635 14.1918 79.5173 12.4801 78.1889 11.2182C76.8606 9.95616 75.0589 9.24718 73.1803 9.24718Z" fill="#FFD800"/>
</svg>
