<svg width="100" height="100" viewBox="0 0 100 100" fill="none" xmlns="http://www.w3.org/2000/svg">
<path d="M96.3731 82.1429H89.1193V75H92.7462V60.7143H78.2385V64.2857H70.9846V57.1429C70.9846 56.1957 71.3667 55.2873 72.0469 54.6175C72.7271 53.9477 73.6496 53.5714 74.6116 53.5714H96.3731C97.3351 53.5714 98.2576 53.9477 98.9378 54.6175C99.6179 55.2873 100 56.1957 100 57.1429V78.5714C100 79.5186 99.6179 80.4271 98.9378 81.0968C98.2576 81.7666 97.3351 82.1429 96.3731 82.1429Z" fill="#FFD800"/>
<path d="M78.2385 100H56.4769C55.515 100 54.5924 99.6237 53.9122 98.954C53.2321 98.2842 52.8499 97.3758 52.8499 96.4286V75C52.8499 74.0528 53.2321 73.1444 53.9122 72.4746C54.5924 71.8049 55.515 71.4286 56.4769 71.4286H78.2385C79.2004 71.4286 80.1229 71.8049 80.8031 72.4746C81.4833 73.1444 81.8654 74.0528 81.8654 75V96.4286C81.8654 97.3758 81.4833 98.2842 80.8031 98.954C80.1229 99.6237 79.2004 100 78.2385 100ZM60.1038 92.8572H74.6115V78.5714H60.1038V92.8572Z" fill="#FFD800"/>
<path d="M45.5961 63.7785C42.9754 63.1059 40.5987 61.7233 38.736 59.7876C36.8732 57.8518 35.599 55.4405 35.058 52.8275C34.517 50.2145 34.7309 47.5045 35.6754 45.0052C36.6199 42.5058 38.2572 40.3174 40.4013 38.6883C42.5454 37.0592 45.1105 36.0547 47.8052 35.789C50.5 35.5232 53.2164 36.0069 55.646 37.1849C58.0756 38.3629 60.1211 40.1882 61.5502 42.4535C62.9793 44.7187 63.7348 47.3332 63.7307 49.9999H70.9846C70.9888 45.9135 69.8063 41.9111 67.5766 38.4647C65.3468 35.0182 62.1628 32.2714 58.3999 30.5482C54.637 28.8249 50.4522 28.1971 46.3389 28.7387C42.2256 29.2802 38.3553 30.9687 35.1844 33.6049C32.0135 36.241 29.6742 39.7151 28.4423 43.6173C27.2104 47.5195 27.1374 51.6872 28.2317 55.629C29.3261 59.5708 31.5422 63.1222 34.6188 65.8646C37.6954 68.607 41.5042 70.426 45.5961 71.1071V63.7785Z" fill="#FFD800"/>
<path d="M95.9741 41.25L87.5959 48.5L82.4456 43.4286L91.1865 35.8571L82.627 21.2857L70.1503 25.4286C67.2277 23.0331 63.9175 21.1377 60.3576 19.8214L57.7825 7.14286H40.6634L38.0883 19.8214C34.4998 21.1009 31.1715 22.9996 28.2593 25.4286L15.8189 21.2857L7.25935 35.8571L17.1246 44.3929C16.4536 48.0898 16.4536 51.8745 17.1246 55.5714L7.25935 64.1429L15.8189 78.7143L28.2956 74.5714C31.2182 76.9669 34.5284 78.8623 38.0883 80.1786L40.6634 92.8571H45.596V100H40.6634C38.9861 99.9987 37.361 99.425 36.0649 98.3766C34.7688 97.3282 33.8817 95.87 33.5546 94.25L31.7049 85.25C30.0628 84.4614 28.4756 83.5666 26.9536 82.5714L18.1401 85.5C17.3907 85.7401 16.607 85.8607 15.8189 85.8571C14.5449 85.8658 13.2916 85.5393 12.1885 84.9115C11.0854 84.2836 10.1726 83.3772 9.54432 82.2857L0.984764 67.7143C0.138191 66.2822 -0.176392 64.6048 0.0948934 62.9694C0.366179 61.334 1.20645 59.8424 2.47181 58.75L9.43552 52.75C9.36298 51.8214 9.32671 50.9286 9.32671 50C9.32671 49.0714 9.39924 48.1786 9.47178 47.2857L2.47181 41.25C1.20645 40.1576 0.366179 38.666 0.0948934 37.0306C-0.176392 35.3952 0.138191 33.7178 0.984764 32.2857L9.54432 17.7143C10.1726 16.6229 11.0854 15.7164 12.1885 15.0885C13.2916 14.4607 14.5449 14.1342 15.8189 14.1429C16.607 14.1393 17.3907 14.2599 18.1401 14.5L26.9173 17.4286C28.4517 16.4332 30.0511 15.5384 31.7049 14.75L33.5546 5.75C33.8817 4.13004 34.7688 2.67176 36.0649 1.62338C37.361 0.575004 38.9861 0.00132679 40.6634 0H57.7825C59.4598 0.00132679 61.0849 0.575004 62.381 1.62338C63.6771 2.67176 64.5642 4.13004 64.8913 5.75L66.741 14.75C68.3831 15.5386 69.9703 16.4334 71.4923 17.4286L80.3058 14.5C81.0552 14.2599 81.8389 14.1393 82.627 14.1429C83.901 14.1342 85.1543 14.4607 86.2574 15.0885C87.3605 15.7164 88.2733 16.6229 88.9016 17.7143L97.4611 32.2857C98.3077 33.7178 98.6223 35.3952 98.351 37.0306C98.0797 38.666 97.2394 40.1576 95.9741 41.25Z" fill="#FFD800"/>
</svg>
